<svg xmlns="http://www.w3.org/2000/svg" width="52" height="52" fill="none" viewBox="0 0 52 52"><path fill="gray" fill-opacity=".3" d="M2 4a2 2 0 1 1 0-4 2 2 0 0 1 0 4M26 28a2 2 0 1 1 0-4 2 2 0 0 1 0 4M14 28a2 2 0 1 1 0-4 2 2 0 0 1 0 4M2 28a2 2 0 1 1 0-4 2 2 0 0 1 0 4M14 16a2 2 0 1 1 0-4 2 2 0 0 1 0 4M2 16a2 2 0 1 1 0-4 2 2 0 0 1 0 4M26 40a2 2 0 1 1 0-4 2 2 0 0 1 0 4M38 40a2 2 0 1 1 0-4 2 2 0 0 1 0 4M14 40a2 2 0 1 1 0-4 2 2 0 0 1 0 4M2 40a2 2 0 1 1 0-4 2 2 0 0 1 0 4M50 52a2 2 0 1 1 0-4 2 2 0 0 1 0 4M26 52a2 2 0 1 1 0-4 2 2 0 0 1 0 4M38 52a2 2 0 1 1 0-4 2 2 0 0 1 0 4M14 52a2 2 0 1 1 0-4 2 2 0 0 1 0 4M2 52a2 2 0 1 1 0-4 2 2 0 0 1 0 4"/></svg>